<mxfile host="Electron" modified="2023-12-18T05:48:26.891Z" agent="Mozilla/5.0 (Macintosh; Intel Mac OS X 10_15_7) AppleWebKit/537.36 (KHTML, like Gecko) draw.io/22.1.2 Chrome/114.0.5735.289 Electron/25.9.4 Safari/537.36" etag="jhboRMe8C99U42D0h3lR" version="22.1.2" type="device">
  <diagram name="Page-1" id="5qkS-4nEQ4uS29UCk0eH">
    <mxGraphModel dx="1363" dy="874" grid="1" gridSize="10" guides="1" tooltips="1" connect="1" arrows="1" fold="1" page="1" pageScale="1" pageWidth="827" pageHeight="1169" math="0" shadow="0">
      <root>
        <mxCell id="0" />
        <mxCell id="1" parent="0" />
        <mxCell id="7_ruJuD9kp6SNucoqvj2-1" value="$02 - $FF" style="rounded=0;whiteSpace=wrap;html=1;" vertex="1" parent="1">
          <mxGeometry x="119" y="960" width="120" height="40" as="geometry" />
        </mxCell>
        <mxCell id="7_ruJuD9kp6SNucoqvj2-2" value="$0100 - $01FF" style="rounded=0;whiteSpace=wrap;html=1;" vertex="1" parent="1">
          <mxGeometry x="119" y="918" width="120" height="42" as="geometry" />
        </mxCell>
        <mxCell id="7_ruJuD9kp6SNucoqvj2-3" value="$0800 - $9EFF" style="rounded=0;whiteSpace=wrap;html=1;" vertex="1" parent="1">
          <mxGeometry x="119" y="440" width="120" height="398" as="geometry" />
        </mxCell>
        <mxCell id="7_ruJuD9kp6SNucoqvj2-12" style="edgeStyle=orthogonalEdgeStyle;rounded=0;orthogonalLoop=1;jettySize=auto;html=1;entryX=1;entryY=0.5;entryDx=0;entryDy=0;" edge="1" parent="1" source="7_ruJuD9kp6SNucoqvj2-4" target="7_ruJuD9kp6SNucoqvj2-1">
          <mxGeometry relative="1" as="geometry" />
        </mxCell>
        <mxCell id="7_ruJuD9kp6SNucoqvj2-4" value="Zero page memory (254 bytes)" style="text;html=1;align=left;verticalAlign=middle;resizable=0;points=[];autosize=1;strokeColor=none;fillColor=none;" vertex="1" parent="1">
          <mxGeometry x="319" y="965" width="190" height="30" as="geometry" />
        </mxCell>
        <mxCell id="7_ruJuD9kp6SNucoqvj2-13" style="edgeStyle=orthogonalEdgeStyle;rounded=0;orthogonalLoop=1;jettySize=auto;html=1;entryX=1;entryY=0.5;entryDx=0;entryDy=0;" edge="1" parent="1" source="7_ruJuD9kp6SNucoqvj2-5" target="7_ruJuD9kp6SNucoqvj2-2">
          <mxGeometry relative="1" as="geometry" />
        </mxCell>
        <mxCell id="7_ruJuD9kp6SNucoqvj2-5" value="Stack page (256 bytes)" style="text;html=1;align=left;verticalAlign=middle;resizable=0;points=[];autosize=1;strokeColor=none;fillColor=none;" vertex="1" parent="1">
          <mxGeometry x="319" y="924" width="150" height="30" as="geometry" />
        </mxCell>
        <mxCell id="7_ruJuD9kp6SNucoqvj2-6" value="$01" style="rounded=0;whiteSpace=wrap;html=1;" vertex="1" parent="1">
          <mxGeometry x="119" y="1000" width="120" height="20" as="geometry" />
        </mxCell>
        <mxCell id="7_ruJuD9kp6SNucoqvj2-7" value="$00" style="rounded=0;whiteSpace=wrap;html=1;" vertex="1" parent="1">
          <mxGeometry x="119" y="1020" width="120" height="20" as="geometry" />
        </mxCell>
        <mxCell id="7_ruJuD9kp6SNucoqvj2-10" style="edgeStyle=orthogonalEdgeStyle;rounded=0;orthogonalLoop=1;jettySize=auto;html=1;entryX=1;entryY=0.5;entryDx=0;entryDy=0;" edge="1" parent="1" source="7_ruJuD9kp6SNucoqvj2-8" target="7_ruJuD9kp6SNucoqvj2-7">
          <mxGeometry relative="1" as="geometry" />
        </mxCell>
        <mxCell id="7_ruJuD9kp6SNucoqvj2-8" value="Current RAM bank (1 byte, 0-255)" style="text;html=1;align=left;verticalAlign=middle;resizable=0;points=[];autosize=1;strokeColor=none;fillColor=none;" vertex="1" parent="1">
          <mxGeometry x="319" y="1015" width="200" height="30" as="geometry" />
        </mxCell>
        <mxCell id="7_ruJuD9kp6SNucoqvj2-24" style="edgeStyle=orthogonalEdgeStyle;rounded=0;orthogonalLoop=1;jettySize=auto;html=1;entryX=1;entryY=0.5;entryDx=0;entryDy=0;" edge="1" parent="1" source="7_ruJuD9kp6SNucoqvj2-9" target="7_ruJuD9kp6SNucoqvj2-6">
          <mxGeometry relative="1" as="geometry" />
        </mxCell>
        <mxCell id="7_ruJuD9kp6SNucoqvj2-9" value="Current ROM/Cartridge bank (1 byte, 0-255 = ROM is 0-31, Cartridge is 32-255)" style="text;html=1;align=left;verticalAlign=middle;resizable=0;points=[];autosize=1;strokeColor=none;fillColor=none;" vertex="1" parent="1">
          <mxGeometry x="319" y="995" width="450" height="30" as="geometry" />
        </mxCell>
        <mxCell id="7_ruJuD9kp6SNucoqvj2-16" style="edgeStyle=orthogonalEdgeStyle;rounded=0;orthogonalLoop=1;jettySize=auto;html=1;entryX=1;entryY=0.5;entryDx=0;entryDy=0;" edge="1" parent="1" source="7_ruJuD9kp6SNucoqvj2-14" target="7_ruJuD9kp6SNucoqvj2-3">
          <mxGeometry relative="1" as="geometry" />
        </mxCell>
        <mxCell id="7_ruJuD9kp6SNucoqvj2-14" value="BASIC memory, available for machine code&amp;nbsp; (40191 bytes, 40 KB)" style="text;html=1;align=left;verticalAlign=middle;resizable=0;points=[];autosize=1;strokeColor=none;fillColor=none;" vertex="1" parent="1">
          <mxGeometry x="319" y="624" width="370" height="30" as="geometry" />
        </mxCell>
        <mxCell id="7_ruJuD9kp6SNucoqvj2-15" value="$9F00 - $9FFF" style="rounded=0;whiteSpace=wrap;html=1;" vertex="1" parent="1">
          <mxGeometry x="119" y="400" width="120" height="40" as="geometry" />
        </mxCell>
        <mxCell id="7_ruJuD9kp6SNucoqvj2-18" style="edgeStyle=orthogonalEdgeStyle;rounded=0;orthogonalLoop=1;jettySize=auto;html=1;" edge="1" parent="1" source="7_ruJuD9kp6SNucoqvj2-17" target="7_ruJuD9kp6SNucoqvj2-15">
          <mxGeometry relative="1" as="geometry" />
        </mxCell>
        <mxCell id="7_ruJuD9kp6SNucoqvj2-17" value="I/O Area (256 bytes)" style="text;html=1;align=left;verticalAlign=middle;resizable=0;points=[];autosize=1;strokeColor=none;fillColor=none;" vertex="1" parent="1">
          <mxGeometry x="319" y="405" width="130" height="30" as="geometry" />
        </mxCell>
        <mxCell id="7_ruJuD9kp6SNucoqvj2-19" value="$A000 - $BFFF" style="rounded=0;whiteSpace=wrap;html=1;" vertex="1" parent="1">
          <mxGeometry x="119" y="280" width="120" height="120" as="geometry" />
        </mxCell>
        <mxCell id="7_ruJuD9kp6SNucoqvj2-21" style="edgeStyle=orthogonalEdgeStyle;rounded=0;orthogonalLoop=1;jettySize=auto;html=1;entryX=1;entryY=0.5;entryDx=0;entryDy=0;" edge="1" parent="1" source="7_ruJuD9kp6SNucoqvj2-20" target="7_ruJuD9kp6SNucoqvj2-19">
          <mxGeometry relative="1" as="geometry" />
        </mxCell>
        <mxCell id="7_ruJuD9kp6SNucoqvj2-20" value="Banked RAM (8 KB paged memory, one of 256 pages available for totals of 2MB)" style="text;html=1;align=left;verticalAlign=middle;resizable=0;points=[];autosize=1;strokeColor=none;fillColor=none;" vertex="1" parent="1">
          <mxGeometry x="319" y="325" width="450" height="30" as="geometry" />
        </mxCell>
        <mxCell id="7_ruJuD9kp6SNucoqvj2-22" value="$C000 - $FFFF" style="rounded=0;whiteSpace=wrap;html=1;" vertex="1" parent="1">
          <mxGeometry x="119" y="40" width="120" height="240" as="geometry" />
        </mxCell>
        <mxCell id="7_ruJuD9kp6SNucoqvj2-25" style="edgeStyle=orthogonalEdgeStyle;rounded=0;orthogonalLoop=1;jettySize=auto;html=1;entryX=1;entryY=0.5;entryDx=0;entryDy=0;" edge="1" parent="1" source="7_ruJuD9kp6SNucoqvj2-23" target="7_ruJuD9kp6SNucoqvj2-22">
          <mxGeometry relative="1" as="geometry" />
        </mxCell>
        <mxCell id="7_ruJuD9kp6SNucoqvj2-23" value="Banked System ROM and Cartridge ROM/RAM (16KB page into one of 256 pages)" style="text;html=1;align=left;verticalAlign=middle;resizable=0;points=[];autosize=1;strokeColor=none;fillColor=none;" vertex="1" parent="1">
          <mxGeometry x="319" y="145" width="470" height="30" as="geometry" />
        </mxCell>
        <mxCell id="7_ruJuD9kp6SNucoqvj2-26" value="$C000 - $FFFF" style="rounded=0;whiteSpace=wrap;html=1;gradientColor=none;gradientDirection=west;dashed=1;strokeColor=#808080;" vertex="1" parent="1">
          <mxGeometry x="79" y="40" width="40" height="240" as="geometry" />
        </mxCell>
        <mxCell id="7_ruJuD9kp6SNucoqvj2-27" value="$C000 - $FFFF" style="rounded=0;whiteSpace=wrap;html=1;dashed=1;dashPattern=1 1;strokeColor=#999999;" vertex="1" parent="1">
          <mxGeometry x="39" y="40" width="40" height="240" as="geometry" />
        </mxCell>
        <mxCell id="7_ruJuD9kp6SNucoqvj2-28" value="$A000 - $BFFF" style="rounded=0;whiteSpace=wrap;html=1;dashed=1;strokeColor=#666666;" vertex="1" parent="1">
          <mxGeometry x="79" y="280" width="40" height="120" as="geometry" />
        </mxCell>
        <mxCell id="7_ruJuD9kp6SNucoqvj2-29" value="$A000 - $BFFF" style="rounded=0;whiteSpace=wrap;html=1;dashed=1;dashPattern=1 1;strokeColor=#999999;" vertex="1" parent="1">
          <mxGeometry x="39" y="280" width="40" height="120" as="geometry" />
        </mxCell>
        <mxCell id="7_ruJuD9kp6SNucoqvj2-30" value="$0200 - $03FF" style="rounded=0;whiteSpace=wrap;html=1;" vertex="1" parent="1">
          <mxGeometry x="119" y="878" width="120" height="40" as="geometry" />
        </mxCell>
        <mxCell id="7_ruJuD9kp6SNucoqvj2-32" style="edgeStyle=orthogonalEdgeStyle;rounded=0;orthogonalLoop=1;jettySize=auto;html=1;entryX=1;entryY=0.5;entryDx=0;entryDy=0;" edge="1" parent="1" source="7_ruJuD9kp6SNucoqvj2-31" target="7_ruJuD9kp6SNucoqvj2-30">
          <mxGeometry relative="1" as="geometry" />
        </mxCell>
        <mxCell id="7_ruJuD9kp6SNucoqvj2-31" value="KERNAL and BASIC variables, vectors (512 bytes)" style="text;html=1;align=left;verticalAlign=middle;resizable=0;points=[];autosize=1;strokeColor=none;fillColor=none;" vertex="1" parent="1">
          <mxGeometry x="319" y="883" width="290" height="30" as="geometry" />
        </mxCell>
        <mxCell id="7_ruJuD9kp6SNucoqvj2-33" value="$0400 - $07FF" style="rounded=0;whiteSpace=wrap;html=1;" vertex="1" parent="1">
          <mxGeometry x="119" y="838" width="120" height="40" as="geometry" />
        </mxCell>
        <mxCell id="7_ruJuD9kp6SNucoqvj2-35" style="edgeStyle=orthogonalEdgeStyle;rounded=0;orthogonalLoop=1;jettySize=auto;html=1;entryX=1;entryY=0.5;entryDx=0;entryDy=0;" edge="1" parent="1" source="7_ruJuD9kp6SNucoqvj2-34" target="7_ruJuD9kp6SNucoqvj2-33">
          <mxGeometry relative="1" as="geometry" />
        </mxCell>
        <mxCell id="7_ruJuD9kp6SNucoqvj2-34" value="Available for machine code programs or custom data storage (1024 bytes, 1KB)" style="text;html=1;align=left;verticalAlign=middle;resizable=0;points=[];autosize=1;strokeColor=none;fillColor=none;" vertex="1" parent="1">
          <mxGeometry x="319" y="843" width="450" height="30" as="geometry" />
        </mxCell>
      </root>
    </mxGraphModel>
  </diagram>
</mxfile>
